<mxfile modified="2019-11-01T09:53:22.938Z" host="www.draw.io" agent="Mozilla/5.0 (Macintosh; Intel Mac OS X 10_14_5) AppleWebKit/605.1.15 (KHTML, like Gecko) Version/12.1.1 Safari/605.1.15" etag="b1AECoWgQqDO7Hi8sUDd" version="12.1.9" type="github" pages="1">
  <diagram id="oubRnEXqWQR2wV0JlbcT" name="Page-1">
    <mxGraphModel dx="1499" dy="1645" grid="1" gridSize="10" guides="1" tooltips="1" connect="1" arrows="1" fold="1" page="1" pageScale="1" pageWidth="1169" pageHeight="827" math="0" shadow="0">
      <root>
        <mxCell id="0"/>
        <mxCell id="1" parent="0"/>
        <mxCell id="WKTzoyoX9BQ7uApisoEN-5" value="Product" style="swimlane;fontStyle=3;align=center;verticalAlign=top;childLayout=stackLayout;horizontal=1;startSize=26;horizontalStack=0;resizeParent=1;resizeParentMax=0;resizeLast=0;collapsible=1;marginBottom=0;" parent="1" vertex="1">
          <mxGeometry x="290" y="422.5" width="190" height="182" as="geometry"/>
        </mxCell>
        <mxCell id="WKTzoyoX9BQ7uApisoEN-8" value="productName: stringÂ &#xa;productID: number&#xa;productPrice: number" style="text;strokeColor=#000000;fillColor=none;align=left;verticalAlign=top;spacingLeft=4;spacingRight=4;overflow=hidden;rotatable=0;points=[[0,0.5],[1,0.5]];portConstraint=eastwest;" parent="WKTzoyoX9BQ7uApisoEN-5" vertex="1">
          <mxGeometry y="26" width="190" height="84" as="geometry"/>
        </mxCell>
        <mxCell id="WKTzoyoX9BQ7uApisoEN-6" value="+ addProduct()&#xa;+ removeProduct()" style="text;strokeColor=none;fillColor=none;align=left;verticalAlign=top;spacingLeft=4;spacingRight=4;overflow=hidden;rotatable=0;points=[[0,0.5],[1,0.5]];portConstraint=eastwest;" parent="WKTzoyoX9BQ7uApisoEN-5" vertex="1">
          <mxGeometry y="110" width="190" height="72" as="geometry"/>
        </mxCell>
        <mxCell id="WKTzoyoX9BQ7uApisoEN-42" value="Payment" style="swimlane;fontStyle=1;align=center;verticalAlign=top;childLayout=stackLayout;horizontal=1;startSize=26;horizontalStack=0;resizeParent=1;resizeParentMax=0;resizeLast=0;collapsible=1;marginBottom=0;strokeColor=#000000;" parent="1" vertex="1">
          <mxGeometry x="763" y="-20" width="190" height="210" as="geometry"/>
        </mxCell>
        <mxCell id="_BRZ3xjwzUAnINmf3H9k-23" value="cardNumber: number&#xa;expiryDate: string&#xa;CVC: number&#xa;cardHoldersName: string" style="text;strokeColor=none;fillColor=none;align=left;verticalAlign=top;spacingLeft=4;spacingRight=4;overflow=hidden;rotatable=0;points=[[0,0.5],[1,0.5]];portConstraint=eastwest;" parent="WKTzoyoX9BQ7uApisoEN-42" vertex="1">
          <mxGeometry y="26" width="190" height="104" as="geometry"/>
        </mxCell>
        <mxCell id="WKTzoyoX9BQ7uApisoEN-44" value="" style="line;strokeWidth=1;fillColor=none;align=left;verticalAlign=middle;spacingTop=-1;spacingLeft=3;spacingRight=3;rotatable=0;labelPosition=right;points=[];portConstraint=eastwest;" parent="WKTzoyoX9BQ7uApisoEN-42" vertex="1">
          <mxGeometry y="130" width="190" height="8" as="geometry"/>
        </mxCell>
        <mxCell id="WKTzoyoX9BQ7uApisoEN-45" value="+ validateCreditCardInformation()" style="text;strokeColor=none;fillColor=none;align=left;verticalAlign=top;spacingLeft=4;spacingRight=4;overflow=hidden;rotatable=0;points=[[0,0.5],[1,0.5]];portConstraint=eastwest;" parent="WKTzoyoX9BQ7uApisoEN-42" vertex="1">
          <mxGeometry y="138" width="190" height="72" as="geometry"/>
        </mxCell>
        <mxCell id="_W1IMvBsjATDuYvXSzq6-1" value="Drinks" style="swimlane;fontStyle=1;align=center;verticalAlign=top;childLayout=stackLayout;horizontal=1;startSize=26;horizontalStack=0;resizeParent=1;resizeParentMax=0;resizeLast=0;collapsible=1;marginBottom=0;" parent="1" vertex="1">
          <mxGeometry x="187.5" y="664.5" width="160" height="52" as="geometry"/>
        </mxCell>
        <mxCell id="_W1IMvBsjATDuYvXSzq6-14" value="Extras" style="swimlane;fontStyle=1;align=center;verticalAlign=top;childLayout=stackLayout;horizontal=1;startSize=26;horizontalStack=0;resizeParent=1;resizeParentMax=0;resizeLast=0;collapsible=1;marginBottom=0;" parent="1" vertex="1">
          <mxGeometry x="365" y="664.5" width="160" height="52" as="geometry"/>
        </mxCell>
        <mxCell id="_W1IMvBsjATDuYvXSzq6-18" value="Delivery" style="swimlane;fontStyle=1;align=center;verticalAlign=top;childLayout=stackLayout;horizontal=1;startSize=26;horizontalStack=0;resizeParent=1;resizeParentMax=0;resizeLast=0;collapsible=1;marginBottom=0;" parent="1" vertex="1">
          <mxGeometry x="535" y="665" width="185" height="200" as="geometry"/>
        </mxCell>
        <mxCell id="BTT1Wvnna2sYC3ly7T8T-30" value="" style="endArrow=block;endSize=16;endFill=0;html=1;entryX=0.637;entryY=0.993;entryDx=0;entryDy=0;entryPerimeter=0;" parent="_W1IMvBsjATDuYvXSzq6-18" target="WKTzoyoX9BQ7uApisoEN-6" edge="1">
          <mxGeometry width="160" relative="1" as="geometry">
            <mxPoint x="-90" as="sourcePoint"/>
            <mxPoint x="70" as="targetPoint"/>
            <Array as="points">
              <mxPoint x="-90" y="-25"/>
              <mxPoint x="-124" y="-25"/>
            </Array>
          </mxGeometry>
        </mxCell>
        <mxCell id="_W1IMvBsjATDuYvXSzq6-19" value="deliverySelected: boolean&#xa;deliveryAddress: string&#xa;deliveryRegionCode: number&#xa;deliveryTime: string" style="text;strokeColor=none;fillColor=none;align=left;verticalAlign=top;spacingLeft=4;spacingRight=4;overflow=hidden;rotatable=0;points=[[0,0.5],[1,0.5]];portConstraint=eastwest;" parent="_W1IMvBsjATDuYvXSzq6-18" vertex="1">
          <mxGeometry y="26" width="185" height="74" as="geometry"/>
        </mxCell>
        <mxCell id="_W1IMvBsjATDuYvXSzq6-20" value="" style="line;strokeWidth=1;fillColor=none;align=left;verticalAlign=middle;spacingTop=-1;spacingLeft=3;spacingRight=3;rotatable=0;labelPosition=right;points=[];portConstraint=eastwest;" parent="_W1IMvBsjATDuYvXSzq6-18" vertex="1">
          <mxGeometry y="100" width="185" height="8" as="geometry"/>
        </mxCell>
        <mxCell id="_W1IMvBsjATDuYvXSzq6-21" value="+ selectDeliveryMethod()&#xa;+ setDeliveryInformation()&#xa;+ validateDeliveryInformation()&#xa;+ addDeliveryFee()" style="text;strokeColor=none;fillColor=none;align=left;verticalAlign=top;spacingLeft=4;spacingRight=4;overflow=hidden;rotatable=0;points=[[0,0.5],[1,0.5]];portConstraint=eastwest;" parent="_W1IMvBsjATDuYvXSzq6-18" vertex="1">
          <mxGeometry y="108" width="185" height="92" as="geometry"/>
        </mxCell>
        <mxCell id="_W1IMvBsjATDuYvXSzq6-79" value="Food" style="swimlane;fontStyle=1;childLayout=stackLayout;horizontal=1;startSize=26;fillColor=none;horizontalStack=0;resizeParent=1;resizeParentMax=0;resizeLast=0;collapsible=1;marginBottom=0;" parent="1" vertex="1">
          <mxGeometry x="30" y="664.5" width="140" height="52" as="geometry"/>
        </mxCell>
        <mxCell id="QPRbfnBizexgPWACVOTy-3" value="Order" style="swimlane;fontStyle=1;align=center;verticalAlign=top;childLayout=stackLayout;horizontal=1;startSize=26;horizontalStack=0;resizeParent=1;resizeParentMax=0;resizeLast=0;collapsible=1;marginBottom=0;strokeColor=#000000;" parent="1" vertex="1">
          <mxGeometry x="873" y="257" width="240" height="358" as="geometry"/>
        </mxCell>
        <mxCell id="QPRbfnBizexgPWACVOTy-4" value="orderID: number&#xa;itemsInOrder: string&#xa;itemsQuantity: number&#xa;totalPrice: number&#xa;commentToOrder: string&#xa;orderDate: string&#xa;statusOfOrder: string (basket/order)&#xa;" style="text;strokeColor=none;fillColor=none;align=left;verticalAlign=top;spacingLeft=4;spacingRight=4;overflow=hidden;rotatable=0;points=[[0,0.5],[1,0.5]];portConstraint=eastwest;" parent="QPRbfnBizexgPWACVOTy-3" vertex="1">
          <mxGeometry y="26" width="240" height="144" as="geometry"/>
        </mxCell>
        <mxCell id="QPRbfnBizexgPWACVOTy-5" value="" style="line;strokeWidth=1;fillColor=none;align=left;verticalAlign=middle;spacingTop=-1;spacingLeft=3;spacingRight=3;rotatable=0;labelPosition=right;points=[];portConstraint=eastwest;" parent="QPRbfnBizexgPWACVOTy-3" vertex="1">
          <mxGeometry y="170" width="240" height="8" as="geometry"/>
        </mxCell>
        <mxCell id="QPRbfnBizexgPWACVOTy-6" value="+ displayItems()&#xa;+ calculateTotalPrice()&#xa;+ getDeliveryInformation()&#xa;+ getCustomerInformation()&#xa;+ addCommentToOrder()&#xa;+ changeOrderStatus()&#xa;+ placeOrder()&#xa;+ cancelOrder()&#xa;+ createOrderConfirmation()" style="text;strokeColor=none;fillColor=none;align=left;verticalAlign=top;spacingLeft=4;spacingRight=4;overflow=hidden;rotatable=0;points=[[0,0.5],[1,0.5]];portConstraint=eastwest;" parent="QPRbfnBizexgPWACVOTy-3" vertex="1">
          <mxGeometry y="178" width="240" height="180" as="geometry"/>
        </mxCell>
        <mxCell id="BTT1Wvnna2sYC3ly7T8T-26" value="" style="endArrow=block;endSize=16;endFill=0;html=1;exitX=0.5;exitY=0;exitDx=0;exitDy=0;entryX=0.105;entryY=1.035;entryDx=0;entryDy=0;entryPerimeter=0;" parent="1" source="_W1IMvBsjATDuYvXSzq6-79" target="WKTzoyoX9BQ7uApisoEN-6" edge="1">
          <mxGeometry width="160" relative="1" as="geometry">
            <mxPoint x="35" y="560" as="sourcePoint"/>
            <mxPoint x="195" y="560" as="targetPoint"/>
            <Array as="points">
              <mxPoint x="100" y="640"/>
              <mxPoint x="310" y="640"/>
            </Array>
          </mxGeometry>
        </mxCell>
        <mxCell id="BTT1Wvnna2sYC3ly7T8T-28" value="" style="endArrow=block;endSize=16;endFill=0;html=1;entryX=0.363;entryY=1.021;entryDx=0;entryDy=0;entryPerimeter=0;exitX=0.75;exitY=0;exitDx=0;exitDy=0;" parent="1" source="_W1IMvBsjATDuYvXSzq6-1" target="WKTzoyoX9BQ7uApisoEN-6" edge="1">
          <mxGeometry width="160" relative="1" as="geometry">
            <mxPoint x="270" y="657" as="sourcePoint"/>
            <mxPoint x="440" y="657" as="targetPoint"/>
            <Array as="points">
              <mxPoint x="308" y="640"/>
              <mxPoint x="359" y="640"/>
            </Array>
          </mxGeometry>
        </mxCell>
        <mxCell id="BTT1Wvnna2sYC3ly7T8T-29" style="edgeStyle=none;rounded=0;orthogonalLoop=1;jettySize=auto;html=1;entryX=0.5;entryY=0;entryDx=0;entryDy=0;" parent="1" source="_W1IMvBsjATDuYvXSzq6-1" target="_W1IMvBsjATDuYvXSzq6-1" edge="1">
          <mxGeometry relative="1" as="geometry"/>
        </mxCell>
        <mxCell id="BTT1Wvnna2sYC3ly7T8T-31" value="" style="endArrow=block;endSize=16;endFill=0;html=1;exitX=0.5;exitY=0;exitDx=0;exitDy=0;entryX=0.842;entryY=1.007;entryDx=0;entryDy=0;entryPerimeter=0;" parent="1" source="_W1IMvBsjATDuYvXSzq6-18" target="WKTzoyoX9BQ7uApisoEN-6" edge="1">
          <mxGeometry width="160" relative="1" as="geometry">
            <mxPoint x="540" y="570" as="sourcePoint"/>
            <mxPoint x="700" y="570" as="targetPoint"/>
            <Array as="points">
              <mxPoint x="628" y="640"/>
              <mxPoint x="450" y="640"/>
            </Array>
          </mxGeometry>
        </mxCell>
        <mxCell id="BTT1Wvnna2sYC3ly7T8T-35" value="&lt;font style=&quot;font-size: 10px&quot;&gt;1&lt;/font&gt;" style="text;html=1;resizable=0;points=[];autosize=1;align=left;verticalAlign=top;spacingTop=-4;" parent="1" vertex="1">
          <mxGeometry x="537" y="58" width="20" height="10" as="geometry"/>
        </mxCell>
        <mxCell id="BTT1Wvnna2sYC3ly7T8T-36" value="&lt;font style=&quot;font-size: 10px&quot;&gt;0..*&lt;/font&gt;" style="text;html=1;resizable=0;points=[];autosize=1;align=left;verticalAlign=top;spacingTop=-4;" parent="1" vertex="1">
          <mxGeometry x="727" y="52" width="30" height="10" as="geometry"/>
        </mxCell>
        <mxCell id="BTT1Wvnna2sYC3ly7T8T-37" value="" style="endArrow=none;html=1;edgeStyle=orthogonalEdgeStyle;exitX=0.483;exitY=1;exitDx=0;exitDy=0;exitPerimeter=0;entryX=0.5;entryY=0;entryDx=0;entryDy=0;" parent="1" source="WKTzoyoX9BQ7uApisoEN-45" target="QPRbfnBizexgPWACVOTy-3" edge="1">
          <mxGeometry relative="1" as="geometry">
            <mxPoint x="883" y="230" as="sourcePoint"/>
            <mxPoint x="1043" y="230" as="targetPoint"/>
          </mxGeometry>
        </mxCell>
        <mxCell id="BTT1Wvnna2sYC3ly7T8T-38" value="&lt;br&gt;" style="resizable=0;html=1;align=left;verticalAlign=bottom;labelBackgroundColor=#ffffff;fontSize=10;" parent="BTT1Wvnna2sYC3ly7T8T-37" connectable="0" vertex="1">
          <mxGeometry x="-1" relative="1" as="geometry"/>
        </mxCell>
        <mxCell id="BTT1Wvnna2sYC3ly7T8T-39" value="" style="resizable=0;html=1;align=right;verticalAlign=bottom;labelBackgroundColor=#ffffff;fontSize=10;" parent="BTT1Wvnna2sYC3ly7T8T-37" connectable="0" vertex="1">
          <mxGeometry x="1" relative="1" as="geometry"/>
        </mxCell>
        <mxCell id="BTT1Wvnna2sYC3ly7T8T-40" value="&lt;font style=&quot;font-size: 10px&quot;&gt;1&lt;/font&gt;" style="text;html=1;resizable=0;points=[];autosize=1;align=left;verticalAlign=top;spacingTop=-4;" parent="1" vertex="1">
          <mxGeometry x="820" y="190" width="20" height="10" as="geometry"/>
        </mxCell>
        <mxCell id="BTT1Wvnna2sYC3ly7T8T-48" value="" style="endArrow=diamondThin;endFill=1;endSize=24;html=1;entryX=0.781;entryY=0.99;entryDx=0;entryDy=0;entryPerimeter=0;exitX=0;exitY=0.5;exitDx=0;exitDy=0;" parent="1" source="QPRbfnBizexgPWACVOTy-4" target="84nDKl_AJqCo-xtaJHAv-20" edge="1">
          <mxGeometry width="160" relative="1" as="geometry">
            <mxPoint x="870" y="340" as="sourcePoint"/>
            <mxPoint x="500" y="170" as="targetPoint"/>
            <Array as="points">
              <mxPoint x="500" y="355"/>
              <mxPoint x="500" y="200"/>
            </Array>
          </mxGeometry>
        </mxCell>
        <mxCell id="_BRZ3xjwzUAnINmf3H9k-16" value="makes an" style="text;html=1;resizable=0;points=[];align=center;verticalAlign=middle;labelBackgroundColor=#ffffff;" parent="BTT1Wvnna2sYC3ly7T8T-48" vertex="1" connectable="0">
          <mxGeometry x="0.8535" y="2" relative="1" as="geometry">
            <mxPoint x="96.5" y="148.5" as="offset"/>
          </mxGeometry>
        </mxCell>
        <mxCell id="BTT1Wvnna2sYC3ly7T8T-49" value="&lt;font style=&quot;font-size: 10px&quot;&gt;0..1&lt;/font&gt;" style="text;html=1;resizable=0;points=[];autosize=1;align=left;verticalAlign=top;spacingTop=-4;" parent="1" vertex="1">
          <mxGeometry x="840" y="463" width="40" height="10" as="geometry"/>
        </mxCell>
        <mxCell id="BTT1Wvnna2sYC3ly7T8T-52" value="&lt;font style=&quot;font-size: 10px&quot;&gt;1&lt;/font&gt;" style="text;html=1;resizable=0;points=[];autosize=1;align=left;verticalAlign=top;spacingTop=-4;" parent="1" vertex="1">
          <mxGeometry x="485" y="468" width="20" height="10" as="geometry"/>
        </mxCell>
        <mxCell id="84nDKl_AJqCo-xtaJHAv-17" value="Customer" style="swimlane;fontStyle=1;align=center;verticalAlign=top;childLayout=stackLayout;horizontal=1;startSize=26;horizontalStack=0;resizeParent=1;resizeParentMax=0;resizeLast=0;collapsible=1;marginBottom=0;" parent="1" vertex="1">
          <mxGeometry x="375" y="12.5" width="160" height="150" as="geometry"/>
        </mxCell>
        <mxCell id="84nDKl_AJqCo-xtaJHAv-18" value="customerName: string&#xa;customerPhone: number&#xa;customerEmail: string" style="text;strokeColor=none;fillColor=none;align=left;verticalAlign=top;spacingLeft=4;spacingRight=4;overflow=hidden;rotatable=0;points=[[0,0.5],[1,0.5]];portConstraint=eastwest;" parent="84nDKl_AJqCo-xtaJHAv-17" vertex="1">
          <mxGeometry y="26" width="160" height="64" as="geometry"/>
        </mxCell>
        <mxCell id="84nDKl_AJqCo-xtaJHAv-19" value="" style="line;strokeWidth=1;fillColor=none;align=left;verticalAlign=middle;spacingTop=-1;spacingLeft=3;spacingRight=3;rotatable=0;labelPosition=right;points=[];portConstraint=eastwest;" parent="84nDKl_AJqCo-xtaJHAv-17" vertex="1">
          <mxGeometry y="90" width="160" height="8" as="geometry"/>
        </mxCell>
        <mxCell id="84nDKl_AJqCo-xtaJHAv-20" value="+ submitCustomerInformation()&#xa;" style="text;strokeColor=none;fillColor=none;align=left;verticalAlign=top;spacingLeft=4;spacingRight=4;overflow=hidden;rotatable=0;points=[[0,0.5],[1,0.5]];portConstraint=eastwest;" parent="84nDKl_AJqCo-xtaJHAv-17" vertex="1">
          <mxGeometry y="98" width="160" height="52" as="geometry"/>
        </mxCell>
        <mxCell id="_BRZ3xjwzUAnINmf3H9k-15" value="&lt;font style=&quot;font-size: 10px&quot;&gt;1&lt;/font&gt;" style="text;html=1;resizable=0;points=[];autosize=1;align=left;verticalAlign=top;spacingTop=-4;" parent="1" vertex="1">
          <mxGeometry x="970" y="240" width="20" height="10" as="geometry"/>
        </mxCell>
        <mxCell id="_BRZ3xjwzUAnINmf3H9k-17" value="&lt;font style=&quot;font-size: 10px&quot;&gt;1&lt;/font&gt;" style="text;html=1;resizable=0;points=[];autosize=1;align=left;verticalAlign=top;spacingTop=-4;" parent="1" vertex="1">
          <mxGeometry x="475" y="165" width="20" height="10" as="geometry"/>
        </mxCell>
        <mxCell id="_BRZ3xjwzUAnINmf3H9k-18" value="&lt;font style=&quot;font-size: 10px&quot;&gt;0..*&lt;/font&gt;" style="text;html=1;resizable=0;points=[];autosize=1;align=left;verticalAlign=top;spacingTop=-4;" parent="1" vertex="1">
          <mxGeometry x="843" y="338.5" width="30" height="10" as="geometry"/>
        </mxCell>
        <mxCell id="_BRZ3xjwzUAnINmf3H9k-22" value="" style="endArrow=open;endFill=1;endSize=12;html=1;" parent="1" edge="1">
          <mxGeometry width="160" relative="1" as="geometry">
            <mxPoint x="535" y="79" as="sourcePoint"/>
            <mxPoint x="760" y="79" as="targetPoint"/>
          </mxGeometry>
        </mxCell>
        <mxCell id="_BRZ3xjwzUAnINmf3H9k-24" value="makes" style="text;html=1;resizable=0;points=[];align=center;verticalAlign=middle;labelBackgroundColor=#ffffff;" parent="_BRZ3xjwzUAnINmf3H9k-22" vertex="1" connectable="0">
          <mxGeometry x="-0.2807" relative="1" as="geometry">
            <mxPoint x="31" y="-0.5" as="offset"/>
          </mxGeometry>
        </mxCell>
        <mxCell id="_BRZ3xjwzUAnINmf3H9k-26" value="" style="endArrow=diamondThin;endFill=0;endSize=24;html=1;" parent="1" edge="1">
          <mxGeometry width="160" relative="1" as="geometry">
            <mxPoint x="480" y="490" as="sourcePoint"/>
            <mxPoint x="868" y="486" as="targetPoint"/>
            <Array as="points">
              <mxPoint x="850" y="486"/>
            </Array>
          </mxGeometry>
        </mxCell>
        <mxCell id="_BRZ3xjwzUAnINmf3H9k-29" value="" style="endArrow=open;endFill=1;endSize=12;html=1;exitX=0.15;exitY=1.01;exitDx=0;exitDy=0;exitPerimeter=0;" parent="1" source="84nDKl_AJqCo-xtaJHAv-20" edge="1">
          <mxGeometry width="160" relative="1" as="geometry">
            <mxPoint x="320" y="190" as="sourcePoint"/>
            <mxPoint x="399" y="420" as="targetPoint"/>
          </mxGeometry>
        </mxCell>
        <mxCell id="_BRZ3xjwzUAnINmf3H9k-30" value="chooses" style="text;html=1;resizable=0;points=[];align=center;verticalAlign=middle;labelBackgroundColor=#ffffff;" parent="_BRZ3xjwzUAnINmf3H9k-29" vertex="1" connectable="0">
          <mxGeometry x="-0.1129" relative="1" as="geometry">
            <mxPoint as="offset"/>
          </mxGeometry>
        </mxCell>
      </root>
    </mxGraphModel>
  </diagram>
</mxfile>
